<svg width="24" height="25" viewBox="0 0 24 25" fill="none" xmlns="http://www.w3.org/2000/svg">
<mask id="mask0_92_181" style="mask-type:alpha" maskUnits="userSpaceOnUse" x="0" y="0" width="24" height="25">
<rect y="0.5" width="24" height="24" fill="#D9D9D9"/>
</mask>
<g mask="url(#mask0_92_181)">
<path d="M14.725 12.4872L7.37495 5.13719C7.12495 4.88719 7.00412 4.59553 7.01245 4.26219C7.02079 3.92886 7.14995 3.63719 7.39995 3.38719C7.64995 3.13719 7.94162 3.01219 8.27495 3.01219C8.60829 3.01219 8.89995 3.13719 9.14995 3.38719L16.85 11.0622C17.05 11.2622 17.2 11.4872 17.3 11.7372C17.4 11.9872 17.45 12.2372 17.45 12.4872C17.45 12.7372 17.4 12.9872 17.3 13.2372C17.2 13.4872 17.05 13.7122 16.85 13.9122L9.14995 21.6122C8.89995 21.8622 8.60412 21.983 8.26245 21.9747C7.92078 21.9664 7.62495 21.8372 7.37495 21.5872C7.12495 21.3372 6.99995 21.0455 6.99995 20.7122C6.99995 20.3789 7.12495 20.0872 7.37495 19.8372L14.725 12.4872Z" fill="#C4188C"/>
</g>
</svg>
